<?xml version="1.0" encoding="UTF-8"?>
<svg width="41px" height="41px" viewBox="0 0 41 41" version="1.1" xmlns="http://www.w3.org/2000/svg" xmlns:xlink="http://www.w3.org/1999/xlink">
    <!-- Generator: Sketch 52.5 (67469) - http://www.bohemiancoding.com/sketch -->
    <title>icon-answer/good</title>
    <desc>Created with Sketch.</desc>
    <defs>
        <polygon id="path-1" points="0 0 40 0 40 40 0 40"></polygon>
    </defs>
    <g id="icon-answer/good" stroke="none" stroke-width="1" fill="none" fill-rule="evenodd">
        <g id="Group-3">
            <mask id="mask-2" fill="white">
                <use xlink:href="#path-1"></use>
            </mask>
            <g id="Clip-2"></g>
            <path d="M24.7179445,13.5776198 L21.7311384,11.5335004 L25.1934153,11.835846 L26.1476247,8.38023251 L27.0887627,11.6863164 L30.5510396,11.5335004 L27.7161881,13.426447 L28.9824762,16.7588218 L26.2979453,14.6884115 L23.4614599,16.7588218 L24.7179445,13.5776198 Z M11.8067072,13.5776198 L8.9702218,11.5335004 L12.2838119,11.835846 L13.223316,8.38023251 L14.1644541,11.6863164 L17.7917569,11.5335004 L14.8065847,13.426447 L16.0598015,16.7588218 L13.3867081,14.6884115 L10.5387852,16.7588218 L11.8067072,13.5776198 Z M9.4473265,24.1761492 L30.7144316,24.1761492 C29.2847514,28.7704884 25.0300233,32.0995769 19.999183,32.0995769 C15.1186635,32.0995769 10.8639353,28.7704884 9.4473265,24.1761492 Z M20.1495037,38.409399 C9.92279727,38.409399 1.73195539,30.2082734 1.73195539,19.9104465 C1.73195539,9.79172657 9.92279727,1.56431007 20.1495037,1.56431007 C30.2258895,1.56431007 38.4183653,9.79172657 38.4183653,19.9104465 C38.4183653,30.2082734 30.2258895,38.409399 20.1495037,38.409399 Z M20.1495037,0 C9.13361382,0 0,8.85839872 0,19.9104465 C0,31.1416013 9.13361382,40 20.1495037,40 C31.1784649,40 40,31.1416013 40,19.9104465 C40,8.85839872 31.1784649,0 20.1495037,0 Z" id="Fill-1" fill="#B9D02D" mask="url(#mask-2)"></path>
        </g>
    </g>
</svg>